<svg width="34" height="41" viewBox="0 0 34 41" fill="none" xmlns="http://www.w3.org/2000/svg">
<path d="M30.4199 35C28.7599 37.48 26.9999 39.9 24.3199 39.94C21.6399 40 20.7799 38.36 17.7399 38.36C14.6799 38.36 13.7399 39.9 11.1999 40C8.57994 40.1 6.59994 37.36 4.91994 34.94C1.49994 30 -1.12006 20.9 2.39994 14.78C4.13994 11.74 7.25994 9.82 10.6399 9.76C13.1999 9.72 15.6399 11.5 17.2199 11.5C18.7799 11.5 21.7399 9.36 24.8399 9.68C26.1399 9.74 29.7799 10.2 32.1199 13.64C31.9399 13.76 27.7799 16.2 27.8199 21.26C27.8799 27.3 33.1199 29.32 33.1799 29.34C33.1199 29.48 32.3399 32.22 30.4199 35ZM18.9999 3C20.4599 1.34 22.8799 0.08 24.8799 0C25.1399 2.34 24.1999 4.7 22.7999 6.38C21.4199 8.08 19.1399 9.4 16.8999 9.22C16.5999 6.92 17.7199 4.52 18.9999 3Z" fill="white"/>
</svg>
