<svg width="41" height="40" viewBox="0 0 41 40" fill="none" xmlns="http://www.w3.org/2000/svg">
<path d="M12.86 18.4802C12.48 18.0002 11.76 17.8802 11.26 18.2602C11.12 18.3802 11 18.5202 10.92 18.6802L1.12001 38.3002C0.820013 38.8802 1.06001 39.5802 1.64001 39.8802C1.80001 40.0002 2.00001 40.0002 2.18001 40.0002H15.82C16.26 40.0002 16.68 39.7602 16.88 39.3602C19.82 33.2602 18 24.0002 12.86 18.4802ZM20.06 0.620227C15.1 8.28023 14.52 18.0002 18.54 26.1802L25.12 39.3602C25.34 39.7602 25.74 40.0002 26.18 40.0002H39.82C40.133 40.0002 40.4331 39.8759 40.6544 39.6546C40.8757 39.4333 41 39.1332 41 38.8202C41 38.6402 41 38.4602 40.88 38.3002C40.88 38.3002 22.52 1.54023 22 0.620227C21.78 0.0802267 21.12 -0.159773 20.56 0.120227C20.34 0.220227 20.16 0.400227 20.06 0.620227Z" fill="white"/>
</svg>
