<svg width="20" height="20" viewBox="0 0 20 20" fill="none" xmlns="http://www.w3.org/2000/svg">
<path d="M19.9996 10.2237C19.9996 9.56536 19.94 8.94036 19.8378 8.33203H10.2167V12.0904H15.7254C15.4785 13.3237 14.7548 14.3654 13.682 15.0737V17.5737H16.9685C18.8927 15.832 19.9996 13.2654 19.9996 10.2237Z" fill="#4285F4"/>
<path d="M10.2173 19.9979C12.9759 19.9979 15.2833 19.0979 16.9691 17.5729L13.6826 15.0729C12.7631 15.6729 11.5966 16.0396 10.2173 16.0396C7.55235 16.0396 5.29607 14.2812 4.48722 11.9062H1.09854V14.4813C2.77585 17.7479 6.22413 19.9979 10.2173 19.9979Z" fill="#34A853"/>
<path d="M4.48692 11.9073C4.27407 11.3073 4.16338 10.6656 4.16338 9.99896C4.16338 9.33229 4.28258 8.69063 4.48692 8.09063V5.51562H1.09825C0.400078 6.86563 -9.15527e-05 8.38229 -9.15527e-05 9.99896C-9.15527e-05 11.6156 0.400078 13.1323 1.09825 14.4823L4.48692 11.9073Z" fill="#FBBC05"/>
<path d="M10.2173 3.95833C11.7243 3.95833 13.0696 4.46667 14.1339 5.45834L17.0458 2.60833C15.2833 0.991668 12.9759 0 10.2173 0C6.22413 0 2.77585 2.25 1.09854 5.51667L4.48722 8.09167C5.29607 5.71667 7.55235 3.95833 10.2173 3.95833Z" fill="#EA4335"/>
</svg>
