<svg width="14" height="16" viewBox="0 0 14 16" fill="none" xmlns="http://www.w3.org/2000/svg">
<path d="M11.6667 5.616V4.66666C11.6667 2.08934 9.57734 0 7 0C4.42266 0 2.33334 2.08934 2.33334 4.66666V5.616C1.12003 6.14553 0.335094 7.34284 0.333344 8.66666V12.6667C0.335531 14.5067 1.82662 15.9978 3.66666 16H10.3333C12.1733 15.9978 13.6644 14.5067 13.6667 12.6667V8.66666C13.6649 7.34284 12.88 6.14553 11.6667 5.616ZM7.66666 11.3333C7.66666 11.7015 7.36819 12 7 12C6.63181 12 6.33334 11.7015 6.33334 11.3333V10C6.33334 9.63181 6.63181 9.33334 7 9.33334C7.36819 9.33334 7.66666 9.63181 7.66666 10V11.3333ZM10.3333 5.33334H3.66666V4.66669C3.66666 2.82575 5.15903 1.33334 7 1.33334C8.84097 1.33334 10.3333 2.82572 10.3333 4.66669V5.33334Z" fill="#cecece"/>
</svg>
