<svg width="162" height="65" viewBox="0 0 162 65" fill="none" xmlns="http://www.w3.org/2000/svg">
<g clip-path="url(#clip0_101_219)">
<path d="M18.4417 41.7257C23.2844 41.7257 27.3329 37.6903 27.3329 32.9325C27.3329 28.1746 23.2844 24.0047 18.4417 24.0047C13.599 24.0047 9.55051 28.0401 9.55051 32.9325H0V0.661133H9.55436V16.9294C12.1415 15.4075 15.1258 14.4813 18.4455 14.4813C28.6631 14.4813 36.8872 22.748 36.8872 32.9286C36.8872 43.1092 28.6631 51.3106 18.4455 51.2453V41.7219L18.4417 41.7257Z" fill="white"/>
<path d="M44.2477 10.515C41.46 10.515 39.0078 8.13605 39.0078 5.35742C39.0078 2.24827 41.4639 0 44.2477 0C47.232 0 49.6225 2.24827 49.6225 5.35742C49.6225 8.13605 47.2358 10.515 44.2477 10.515V10.515Z" fill="white"/>
<path d="M49.0905 15.4727H39.5361V50.2536H49.0905V15.4727Z" fill="white"/>
<path d="M70.1193 51.2491C59.9673 51.2491 51.7432 43.0478 51.7432 32.8671V0.661133H61.2975V32.8633C61.2975 37.625 65.346 41.7257 70.1193 41.7257V51.2491V51.2491Z" fill="white"/>
<path d="M72.8414 65.0002V32.9325H82.3958C82.3958 37.8249 86.5098 41.7258 91.287 41.7258C96.0642 41.7258 100.178 37.8249 100.178 32.9325C100.178 28.0401 96.1297 24.0048 91.287 24.0048V14.4813C101.505 14.416 109.729 22.8134 109.729 32.9287C109.729 43.044 101.505 51.2454 91.287 51.2454C87.9711 51.2454 84.9829 50.3845 82.3958 48.8664V65.0002H72.8414V65.0002Z" fill="white"/>
<path d="M112.377 65.0002V32.9325H121.932C121.932 37.8249 126.046 41.7258 130.823 41.7258C135.6 41.7258 139.714 37.8249 139.714 32.9325C139.714 28.0401 135.666 24.0048 130.823 24.0048V14.4813C141.041 14.416 149.265 22.8134 149.265 32.9287C149.265 43.044 141.041 51.2454 130.823 51.2454C127.507 51.2454 124.519 50.3845 121.932 48.8664V65.0002H112.377V65.0002Z" fill="white"/>
<path d="M151.385 45.3612C151.385 42.5826 153.841 40.2036 156.625 40.2036C159.61 40.2036 162 42.5826 162 45.3612C162 48.4703 159.613 50.7186 156.625 50.7186C153.838 50.7186 151.385 48.4703 151.385 45.3612Z" fill="white"/>
</g>
<defs>
<clipPath id="clip0_101_219">
<rect width="162" height="65" fill="white"/>
</clipPath>
</defs>
</svg>
