<svg width="16" height="16" viewBox="0 0 16 16" fill="none" xmlns="http://www.w3.org/2000/svg">
<g clip-path="url(#clip0_101_171)">
<path d="M15.9693 3.69482L10.3573 9.30682C9.73158 9.93099 8.88383 10.2815 8 10.2815C7.11617 10.2815 6.26842 9.93099 5.64267 9.30682L0.0306667 3.69482C0.0213333 3.80016 0 3.89549 0 4.00016V12.0002C0.00105857 12.8839 0.352588 13.7311 0.97748 14.356C1.60237 14.9809 2.4496 15.3324 3.33333 15.3335H12.6667C13.5504 15.3324 14.3976 14.9809 15.0225 14.356C15.6474 13.7311 15.9989 12.8839 16 12.0002V4.00016C16 3.89549 15.9787 3.80016 15.9693 3.69482Z" fill="#cecece"/>
<path d="M9.41467 8.36384L15.504 2.27384C15.209 1.78472 14.793 1.37986 14.296 1.09832C13.799 0.816786 13.2379 0.668064 12.6667 0.666504H3.33334C2.76215 0.668064 2.201 0.816786 1.70402 1.09832C1.20704 1.37986 0.790988 1.78472 0.496002 2.27384L6.58534 8.36384C6.96105 8.73805 7.46972 8.94815 8 8.94815C8.53028 8.94815 9.03895 8.73805 9.41467 8.36384Z" fill="#cecece"/>
</g>
<defs>
<clipPath id="clip0_101_171">
<rect width="16" height="16" fill="white"/>
</clipPath>
</defs>
</svg>
