<svg width="64" height="64" viewBox="0 0 64 64" fill="none" xmlns="http://www.w3.org/2000/svg">
<circle cx="32" cy="32" r="32" fill="#131313"/>
<path d="M28.425 38.5002H22.25C20.6326 38.5002 19 37.2717 19 34.5288V29.0689C19.0228 26.5797 19.9549 24.1846 21.6208 22.3348C23.2867 20.485 25.5714 19.308 28.0448 19.0256C29.4405 18.9243 30.8417 19.1246 32.1531 19.6129C33.4645 20.1012 34.6554 20.8661 35.645 21.8556C36.6345 22.8451 37.3994 24.036 37.8877 25.3474C38.3761 26.6588 38.5764 28.06 38.4751 29.4557C38.1923 31.9299 37.0143 34.2154 35.1631 35.8813C33.3119 37.5473 30.9154 38.4787 28.425 38.5002ZM40.6667 28.8371H40.6537C40.6537 29.0938 40.6537 29.3506 40.6407 29.6084C40.2225 35.4669 34.8676 40.4263 28.841 40.6462V40.6624C29.6 41.9788 30.6917 43.0724 32.0067 43.8337C33.3218 44.595 34.8138 44.9972 36.3333 45H41.75C42.612 45 43.4386 44.6576 44.0481 44.0481C44.6576 43.4386 45 42.612 45 41.7501V36.3336C44.9984 34.8138 44.5972 33.3211 43.8367 32.0054C43.0761 30.6896 41.9829 29.597 40.6667 28.8371Z" fill="white"/>
</svg>
